# Blender v3.0.0 OBJ File: 'untitled.blend'
# www.blender.org
mtllib Cube.mtl
o BlockAsset1
v 0.000000 0.100000 -0.070000
v 0.000000 0.000000 -0.070000
v 0.000000 0.100000 0.000000
v 0.000000 0.000000 0.000000
v 0.100000 0.100000 -0.070000
v 0.100000 0.000000 -0.070000
v 0.100000 0.100000 0.000000
v 0.100000 0.000000 0.000000
vt 0.425012 0.250041
vt 0.425012 0.500000
vt 0.250041 0.250041
vt 0.250041 0.500000
vt 0.674971 0.749959
vt 0.425012 0.749959
vt 0.674971 0.500000
vt 0.250041 0.999918
vt 0.250041 0.749959
vt 0.425012 0.999918
vt 0.000082 0.500000
vt 0.000082 0.749959
vt 0.250041 0.000082
vt 0.425012 0.000082
vn -1.0000 0.0000 0.0000
vn 0.0000 0.0000 -1.0000
vn 1.0000 0.0000 0.0000
vn 0.0000 0.0000 1.0000
vn 0.0000 -1.0000 0.0000
vn 0.0000 1.0000 0.0000
usemtl Material.001
s off
f 1/1/1 2/2/1 3/3/1
f 3/3/1 2/2/1 4/4/1
f 5/5/2 6/6/2 1/7/2
f 1/7/2 6/6/2 2/2/2
f 7/8/3 8/9/3 5/10/3
f 5/10/3 8/9/3 6/6/3
f 3/11/4 4/4/4 7/12/4
f 7/12/4 4/4/4 8/9/4
f 6/6/5 8/9/5 2/2/5
f 2/2/5 8/9/5 4/4/5
f 7/13/6 5/14/6 3/3/6
f 3/3/6 5/14/6 1/1/6
